PathFileType	4	(X/Y/Z)	D:\TRACE\v60_Jaco2_6-2-23\BothDRS_Motion3_1-platform.trc
DataRate	CameraRate	NumFrames	NumMarkers	Units	OrigDataRate	OrigDataStartFrame	OrigNumFrames
100.00	100.00	      66	5	mm	100.00	876	      7000
Frame#	Time	Left_Front			Right_Front			Left_Aft			Right_Aft			Post			
		X1	Y1	Z1	X2	Y2	Z2	X3	Y3	Z3	X4	Y4	Z4	X5	Y5	Z5	

876	8.750	-772.70764	-25.94914	-657.92273	797.70264	-27.10447	-635.79065	-703.86652	35.61488	476.79266	710.69879	37.21318	579.60461	23.50067	1253.08228	-1039.84924	
877	8.760	-772.60339	-26.02198	-658.07727	797.90753	-27.26576	-635.79053	-703.71106	35.81258	476.75714	710.75061	37.30955	579.58746	23.29426	1252.71887	-1039.99121	
878	8.770	-772.49225	-26.06104	-658.10291	798.15759	-27.38192	-635.79956	-703.44830	36.01165	476.65567	710.84003	37.33807	579.53723	23.80904	1252.87585	-1040.37732	
879	8.780	-772.30591	-26.35921	-658.25391	798.47803	-27.60694	-635.87201	-703.17780	36.43386	476.77240	710.92279	37.41181	579.53113	23.96198	1252.64771	-1040.58704	
880	8.790	-771.94501	-26.76735	-658.36963	798.59601	-27.95735	-635.85681	-702.67603	35.69203	476.97745	711.20386	37.51454	579.50281	24.12699	1252.33997	-1040.86365	
881	8.800	-771.83057	-26.96204	-658.30383	798.95154	-28.30823	-635.90948	-702.44055	35.64464	476.68094	711.41516	37.58568	579.43768	24.23337	1251.95251	-1041.01074	
882	8.810	-771.87463	-26.53034	-658.31085	799.09863	-28.32950	-635.92047	-702.58167	35.98043	476.72321	711.44635	37.82285	579.48315	24.66364	1251.59363	-1041.27295	
883	8.820	-771.75818	-26.62737	-658.38666	799.38214	-28.35864	-635.92114	-702.43268	36.11713	476.60968	711.72534	37.99859	579.41211	25.06408	1251.33667	-1041.51025	
884	8.830	-771.94379	-26.83391	-658.36182	799.50024	-28.51017	-635.98322	-702.12543	36.30589	476.59149	712.09760	38.09925	579.22913	25.09909	1251.17896	-1041.78540	
885	8.840	-771.51257	-26.85244	-658.53473	799.63470	-28.74275	-636.03271	-701.96167	36.42397	476.64685	712.28973	38.32220	579.22052	25.18027	1250.99719	-1042.04224	
886	8.850	-771.47302	-26.85859	-658.57312	799.68475	-28.79199	-636.06549	-701.88171	36.50490	476.50143	712.51721	38.34864	579.14392	25.51452	1250.85876	-1042.41907	
887	8.860	-771.33496	-26.96049	-658.66479	799.76282	-28.80895	-636.12946	-701.72870	36.45066	476.47604	712.62335	38.49681	579.07098	25.66195	1250.75427	-1042.80688	
888	8.870	-771.11865	-27.01846	-658.62909	800.00262	-29.06893	-636.16016	-701.51740	36.43828	476.45621	712.87665	38.59496	579.03857	25.92314	1250.48865	-1043.26660	
889	8.880	-770.85614	-27.13689	-658.59790	800.15509	-29.20436	-636.24500	-701.26923	36.54904	476.50015	713.03223	38.65263	579.05463	25.72348	1250.18591	-1043.35107	
890	8.890	-770.45612	-27.26596	-658.51953	800.24951	-29.17136	-636.22412	-700.99207	36.68771	476.49600	713.20172	38.67064	579.06854	25.82131	1250.12354	-1043.54919	
891	8.900	-770.28412	-27.53429	-658.42340	800.32794	-29.20731	-636.25366	-700.89264	36.70219	476.43781	713.27539	38.68724	579.07416	26.18741	1250.08276	-1044.08203	
892	8.910	-770.12494	-27.63379	-658.58582	800.51520	-29.29639	-636.27222	-700.70422	36.70573	476.40811	713.40564	38.72172	579.03107	26.18741	1249.96838	-1044.13391	
893	8.920	-769.95367	-27.76218	-658.54321	800.65247	-29.39838	-636.30457	-700.55634	36.68462	476.41522	713.53619	38.71686	579.03540	26.31809	1249.85547	-1044.18738	
894	8.930	-769.70251	-27.71371	-658.39764	800.78442	-29.43064	-636.29034	-700.56042	36.78558	476.37457	713.67554	38.78088	579.04688	26.71908	1249.71533	-1044.15979	
895	8.940	-769.70807	-27.87232	-658.40619	800.94867	-29.44810	-636.24487	-700.43420	36.87278	476.32736	713.81018	38.81192	579.04608	26.78487	1249.65454	-1043.95300	
896	8.950	-769.27020	-27.74954	-658.59119	801.05194	-29.50296	-636.19604	-700.32690	36.89746	476.30670	713.92181	38.80804	579.05206	26.80950	1249.64246	-1043.85852	
897	8.960	-769.45538	-28.00966	-658.54810	801.10822	-29.56493	-636.27875	-700.31885	36.92408	476.29721	713.99084	38.81169	578.99261	26.85302	1249.57422	-1043.65833	
898	8.970	-769.40546	-28.29333	-658.70184	801.09564	-29.59088	-636.31622	-700.26050	36.91591	476.33356	714.06104	38.80769	578.96448	26.88214	1249.48474	-1043.70520	
899	8.980	-769.27740	-28.28339	-658.60876	801.18262	-29.59183	-636.31152	-700.10138	36.95559	476.32153	714.26709	38.82930	578.97949	26.92718	1249.44348	-1043.69336	
900	8.990	-769.07343	-28.27459	-658.60962	801.27301	-29.62692	-636.26099	-699.98468	36.98907	476.37054	714.35828	38.87663	579.01282	27.14044	1249.40283	-1043.90076	
901	9.000	-769.02246	-27.94853	-658.69031	801.65918	-29.52615	-636.04828	-699.86499	36.99283	476.34973	714.44232	38.84245	578.98273	27.19989	1249.40552	-1043.99780	
902	9.010	-768.86902	-28.04099	-658.66199	801.87415	-29.41817	-636.03070	-699.88336	36.97935	476.32733	714.48773	38.81336	578.98474	27.35450	1249.41492	-1044.27722	
903	9.020	-768.78278	-28.12991	-658.65527	801.81842	-29.50757	-636.12213	-699.79077	36.92338	476.33850	714.49329	38.79190	578.95819	27.45141	1249.40723	-1044.47168	
904	9.030	-768.81299	-28.09716	-658.64996	801.79828	-29.56269	-636.15552	-699.76312	36.90950	476.37515	714.52307	38.80592	578.97491	27.52853	1249.42285	-1044.63428	
905	9.040	-768.83862	-28.03741	-658.64014	801.87274	-29.45051	-636.09961	-699.79083	36.89359	476.38583	714.57593	38.79539	579.02075	27.51221	1249.48938	-1044.67358	
906	9.050	-768.62445	-28.03330	-658.76208	801.97156	-29.33820	-636.04358	-699.72791	36.83488	476.39908	714.60388	38.76516	579.02960	27.60082	1249.59692	-1044.67285	
907	9.060	-768.61237	-27.92667	-658.78101	802.14966	-29.19393	-635.98810	-699.97229	37.34483	476.21103	714.59216	38.76908	579.01630	27.67902	1249.72388	-1044.58154	
908	9.070	-768.52368	-27.93098	-658.90082	802.20520	-29.17384	-636.01837	-699.99390	37.29063	476.20886	714.55566	38.77010	579.00171	27.69501	1249.79260	-1044.41040	
909	9.080	-768.59753	-27.77836	-658.72003	802.15833	-29.16797	-636.05872	-699.97937	37.30186	476.21118	714.55365	38.73323	579.02802	27.71101	1249.87598	-1044.14941	
910	9.090	-768.68243	-27.60202	-658.64960	802.11890	-29.16504	-636.05499	-699.97119	37.27782	476.21524	714.71808	38.70735	579.07977	27.58467	1250.06567	-1043.73523	
911	9.100	-768.58368	-27.66566	-658.70648	802.23596	-28.91635	-636.00641	-699.99481	37.27714	476.24298	714.75610	38.60709	579.07526	27.60929	1250.22314	-1043.32947	
912	9.110	-768.72681	-27.32244	-658.66644	802.18628	-28.80279	-636.00171	-699.94666	37.26397	476.26035	714.67413	38.48016	579.13586	27.73319	1250.44788	-1042.91785	
913	9.120	-768.66821	-27.23742	-658.66998	802.21539	-28.66484	-635.95917	-699.92432	37.14235	476.27039	714.76904	38.45108	579.12805	27.91372	1250.75598	-1042.71021	
914	9.130	-768.71515	-27.33885	-658.59637	802.17914	-28.61299	-635.99811	-699.83783	37.00492	476.29935	714.84192	38.34915	579.21930	27.96723	1250.83765	-1042.49487	
915	9.140	-768.66815	-27.27292	-658.56445	802.10052	-28.50601	-635.97980	-699.79437	36.76775	476.27423	714.78033	38.26249	579.27112	27.91754	1250.94006	-1042.28979	
916	9.150	-768.74579	-26.99264	-658.50488	802.05194	-28.48228	-636.02386	-699.75586	36.57041	476.38315	714.77869	38.23199	579.30139	27.76639	1251.10547	-1041.90417	
917	9.160	-768.77124	-26.90331	-658.43719	802.08661	-28.24355	-635.99585	-699.72845	36.61057	476.46286	714.81219	38.07601	579.32892	27.82342	1251.36450	-1041.73779	
918	9.170	-768.69775	-26.57302	-658.30798	802.18530	-27.97481	-635.95673	-699.69568	36.41761	476.47812	714.95239	38.02969	579.44806	27.93991	1251.62292	-1041.36194	
919	9.180	-768.60846	-26.41817	-658.26941	802.25739	-27.80922	-635.88531	-699.56122	36.24853	476.50165	715.06909	37.96633	579.51465	27.73223	1251.89905	-1041.14453	
920	9.190	-768.70459	-26.35050	-658.21185	802.15826	-27.76148	-635.87897	-699.56812	36.12487	476.49060	715.04755	37.76025	579.57349	27.67045	1252.20264	-1040.75696	
921	9.200	-768.67462	-26.23559	-658.16730	801.96838	-27.73847	-635.87036	-699.59985	35.82238	476.59262	714.94568	37.59852	579.53296	27.63168	1252.51575	-1040.53967	
922	9.210	-768.81671	-26.34108	-658.29016	802.03442	-27.51116	-635.80432	-699.52356	35.69111	476.73248	714.96930	37.45266	579.57275	27.65495	1252.76123	-1040.24036	
923	9.220	-768.74811	-26.15041	-658.08459	802.07806	-27.31124	-635.76630	-699.46045	35.55043	476.79550	714.94055	37.26761	579.63660	27.78048	1253.10510	-1039.86890	
924	9.230	-768.75500	-25.82342	-657.94324	802.02661	-27.08803	-635.71271	-699.37231	35.45787	476.80707	714.83618	37.15265	579.66547	27.85905	1253.38489	-1039.39465	
925	9.240	-768.58423	-25.68327	-657.77960	802.08295	-26.78929	-635.62097	-699.39459	35.35367	476.90036	714.88171	36.97380	579.67877	27.86491	1253.60046	-1038.89624	
926	9.250	-768.45117	-25.62867	-657.56366	802.09711	-26.74103	-635.61371	-699.45074	35.14340	477.03793	714.84656	36.76294	579.67108	27.80800	1253.81299	-1038.51135	
927	9.260	-768.57770	-25.48718	-657.49725	802.02563	-26.57335	-635.60339	-699.52094	34.98778	477.09387	714.45935	35.99534	578.99164	27.71626	1254.13098	-1038.08301	
928	9.270	-768.68164	-25.18524	-657.90021	801.93860	-26.28328	-635.60095	-699.62988	34.92615	477.10422	714.46411	35.92532	579.20203	27.58196	1254.61157	-1037.73376	
929	9.280	-768.88312	-24.65927	-657.77808	801.84833	-25.85023	-635.54907	-699.68842	34.90088	477.08713	714.43994	35.95184	579.95453	27.29191	1255.21826	-1037.20715	
930	9.290	-768.91803	-24.24077	-657.77484	801.68256	-25.55094	-635.53113	-699.83435	34.81593	477.07602	714.43292	35.83642	580.01599	27.17485	1255.58411	-1036.64465	
931	9.300	-769.09875	-23.78750	-657.70001	801.52142	-25.35960	-635.56757	-700.01373	34.64288	477.09338	714.40961	35.73218	580.05383	26.88470	1255.74573	-1035.79456	
932	9.310	-769.20575	-23.65405	-657.59387	801.52155	-25.19761	-635.45679	-700.17657	34.44268	477.19257	714.29694	35.59855	580.12091	27.19461	1256.22180	-1035.30164	
933	9.320	-769.26703	-23.55505	-657.44153	801.40076	-25.08139	-635.43091	-700.18243	34.30503	477.31686	714.13330	35.34807	580.21289	27.21875	1256.43762	-1034.60730	
934	9.330	-769.26050	-23.38421	-657.39990	801.43530	-24.82753	-635.29047	-700.21204	34.17406	477.32220	714.14673	35.15670	580.29266	27.18064	1256.83459	-1033.95227	
935	9.340	-769.35626	-23.04285	-657.50708	801.62018	-24.39157	-635.17407	-700.23474	34.10072	477.34641	713.93903	34.78265	580.32367	26.76432	1257.13501	-1033.46521	
936	9.350	-769.58118	-22.69888	-657.70831	801.13623	-24.09828	-634.90637	-700.30029	33.96495	477.45248	713.83527	34.54351	580.46619	26.98630	1257.75256	-1033.23486	
937	9.360	-769.60956	-22.61149	-657.68707	801.00696	-23.92980	-634.84729	-700.38171	33.84310	477.55594	713.35748	34.35995	580.66675	26.83191	1258.23547	-1032.86060	
938	9.370	-769.70538	-22.43567	-657.65381	800.84241	-23.73444	-634.86298	-700.52197	33.54750	477.75150	713.79608	34.17979	580.55914	26.83503	1258.56909	-1032.41064	
939	9.380	-769.70959	-22.26815	-657.47113	800.63727	-23.49011	-634.88745	-700.24048	33.09382	477.92932	713.85498	34.05486	580.63074	26.78248	1258.87903	-1031.98083	
940	9.390	-769.77820	-21.87589	-657.51917	800.72852	-23.12206	-634.64166	-700.21777	32.86100	478.02972	713.75452	33.91329	580.65228	26.94385	1259.16003	-1031.54651	
941	9.400	-769.97046	-21.42113	-657.52649	800.71747	-22.76184	-634.71185	-700.24683	32.60770	478.08524	713.61908	33.65825	580.68610	26.97381	1259.63977	-1031.14258	
